<?xml version="1.0" encoding="iso-8859-1"?>
<!-- Generator: Adobe Illustrator 19.0.0, SVG Export Plug-In . SVG Version: 6.00 Build 0)  -->
<svg version="1.1" id="Layer_1" xmlns="http://www.w3.org/2000/svg" xmlns:xlink="http://www.w3.org/1999/xlink" x="0px" y="0px"
	 viewBox="0 0 512 512" style="enable-background:new 0 0 512 512;" xml:space="preserve">
<rect y="64" style="fill:#EFEFEF;" width="512" height="384"/>
<g>
	<rect x="48.08" y="122.64" style="fill:#C9C9C9;" width="238.88" height="10.64"/>
	<rect x="48.08" y="154.64" style="fill:#C9C9C9;" width="238.88" height="10.64"/>
	<rect x="48.08" y="186.64" style="fill:#C9C9C9;" width="238.88" height="10.64"/>
	<rect x="48.08" y="218.64" style="fill:#C9C9C9;" width="238.88" height="10.64"/>
	<rect x="48.08" y="250.64" style="fill:#C9C9C9;" width="238.88" height="10.64"/>
	<rect x="48.08" y="282.64" style="fill:#C9C9C9;" width="238.4" height="10.64"/>
	<rect x="48.08" y="314.64" style="fill:#C9C9C9;" width="421.36" height="10.64"/>
	<rect x="48.08" y="346.64" style="fill:#C9C9C9;" width="421.36" height="10.64"/>
	<rect x="48.08" y="378.64" style="fill:#C9C9C9;" width="421.36" height="10.64"/>
	<circle style="fill:#C9C9C9;" cx="398" cy="157.84" r="35.2"/>
</g>
<g>
	<path style="fill:#002833;" d="M396.32,274.96l-34.08-73.76c0,0-35.68,0.48-35.68,33.36s0,40.48,0,40.48
		S396.56,274.96,396.32,274.96z"/>
	<path style="fill:#002833;" d="M399.68,274.96l34.08-73.76c0,0,35.68,0.48,35.68,33.36s0,40.48,0,40.48
		S399.44,274.96,399.68,274.96z"/>
</g>
<polygon style="fill:#FF5F5F;" points="398,201.2 373.44,201.2 398,255.44 422.48,201.2 "/>
<g>
</g>
<g>
</g>
<g>
</g>
<g>
</g>
<g>
</g>
<g>
</g>
<g>
</g>
<g>
</g>
<g>
</g>
<g>
</g>
<g>
</g>
<g>
</g>
<g>
</g>
<g>
</g>
<g>
</g>
</svg>
